Coordinates
version=1
nRows=38
nColumns=12
inDegrees=yes

Units are S.I. units (second, meters, Newtons, ...)
Angles are in degrees

endheader
time	SC_y	SC_z	SC_x	AC_y	AC_z	AC_x	GH_y	GH_z	GH_yy	EL_x	PS_y
       0.0              -11.26          39.41          46.96          47.93         -15.09          9.099         -161.2          34.88          133.4          102.7          141.6
   0.03555              -11.27           39.4          46.96          47.93         -15.09          9.099         -161.2          34.88          133.4          102.7          141.5
   0.07111              -11.27          39.39          46.96          47.93         -15.09          9.099         -161.2          34.88          133.4          102.8          141.5
    0.1067              -11.28          39.39          46.95          47.93         -15.09          9.099         -161.2          34.87          133.4          102.8          141.5
    0.1422              -11.28          39.38          46.95          47.92         -15.09            9.1         -161.2          34.87          133.4          102.8          141.5
    0.1778              -11.29          39.37          46.95          47.92         -15.09            9.1         -161.2          34.87          133.4          102.8          141.5
    0.2133              -11.29          39.36          46.94          47.92         -15.09            9.1         -161.1          34.87          133.4          102.8          141.5
    0.2489               -11.3          39.35          46.94          47.92         -15.09            9.1         -161.1          34.87          133.4          102.8          141.4
    0.2844               -11.3          39.34          46.94          47.92         -15.09            9.1         -161.1          34.87          133.4          102.8          141.4
      0.32              -11.31          39.33          46.93          47.91         -15.09            9.1         -161.0          34.87          133.4          102.8          141.4
    0.3555              -11.32          39.32          46.93          47.91         -15.09            9.1         -161.0          34.87          133.4          102.8          141.4
    0.3911              -11.33          39.31          46.92          47.91         -15.08            9.1         -161.0          34.86          133.4          102.8          141.4
    0.4266              -11.34           39.3          46.92          47.91         -15.08            9.1         -161.0          34.86          133.3          102.8          141.3
    0.4622              -11.34          39.28          46.91           47.9         -15.08            9.1         -160.9          34.86          133.3          102.8          141.3
    0.4978              -11.35          39.27           46.9           47.9         -15.08            9.1         -160.9          34.86          133.3          102.8          141.3
    0.5333              -11.37          39.25           46.9           47.9         -15.08            9.1         -160.8          34.86          133.3          102.8          141.2
    0.5689              -11.38          39.23          46.89          47.89         -15.08            9.1         -160.8          34.85          133.3          102.8          141.2
    0.6044              -11.39          39.22          46.88          47.89         -15.08            9.1         -160.7          34.85          133.3          102.8          141.2
      0.64               -11.4          39.19          46.87          47.89         -15.08            9.1         -160.7          34.85          133.3          102.8          141.1
    0.6755              -11.42          39.17          46.86          47.88         -15.08            9.1         -160.6          34.84          133.3          102.8          141.1
    0.7111              -11.44          39.15          46.85          47.88         -15.07            9.1         -160.5          34.84          133.3          102.9          141.0
    0.7466              -11.46          39.12          46.84          47.87         -15.07            9.1         -160.5          34.84          133.2          102.9          140.9
    0.7822              -11.48          39.09          46.82          47.86         -15.07            9.1         -160.4          34.83          133.2          102.9          140.9
    0.8177               -11.5          39.05          46.81          47.86         -15.07          9.101         -160.3          34.83          133.2          102.9          140.8
    0.8533              -11.53          39.01          46.79          47.85         -15.07          9.101         -160.2          34.82          133.2          102.9          140.7
    0.8888              -11.55          38.97          46.77          47.84         -15.06          9.101         -160.1          34.82          133.1          102.9          140.6
    0.9244              -11.59          38.92          46.75          47.83         -15.06          9.101         -159.9          34.81          133.1          102.9          140.5
    0.9599              -11.62          38.87          46.73          47.82         -15.06          9.101         -159.8           34.8          133.1          103.0          140.4
    0.9955              -11.66          38.81           46.7          47.81         -15.05          9.101         -159.6          34.79          133.0          103.0          140.3
     1.031              -11.71          38.74          46.67          47.79         -15.05          9.102         -159.4          34.79          133.0          103.0          140.2
     1.067              -11.76          38.66          46.64          47.78         -15.04          9.102         -159.2          34.77          132.9          103.0          140.0
     1.102              -11.82          38.57           46.6          47.76         -15.04          9.102         -159.0          34.76          132.9          103.1          139.8
     1.138              -11.89          38.47          46.55          47.74         -15.03          9.102         -158.7          34.75          132.8          103.1          139.6
     1.173              -11.98          38.35           46.5          47.71         -15.02          9.103         -158.3          34.73          132.7          103.2          139.3
     1.209              -12.07          38.21          46.44          47.68         -15.01          9.103         -158.0          34.71          132.7          103.2          139.0
     1.244              -12.18          38.04          46.36          47.65          -15.0          9.104         -157.5          34.69          132.5          103.3          138.7
      1.28              -12.32          37.84          46.28          47.61         -14.99          9.104         -157.0          34.66          132.4          103.4          138.3
     1.315              -12.48          37.61          46.17          47.56         -14.97          9.105         -156.3          34.63          132.3          103.5          137.8
